<?xml version="1.0" standalone="no"?>
<!DOCTYPE svg PUBLIC "-//W3C//DTD SVG 20010904//EN"
 "http://www.w3.org/TR/2001/REC-SVG-20010904/DTD/svg10.dtd">
<svg version="1.0" xmlns="http://www.w3.org/2000/svg"
 width="1024.000000pt" height="1024.000000pt" viewBox="0 0 1024.000000 1024.000000"
 preserveAspectRatio="xMidYMid meet">
<metadata>
Created by potrace 1.11, written by Peter Selinger 2001-2013
</metadata>
<g transform="translate(0.000000,1024.000000) scale(0.100000,-0.100000)"
fill="#000000" stroke="none">
<path d="M0 5758 l0 -4483 99 245 c1068 2654 2815 4927 5106 6646 1074 806
2245 1464 3515 1975 l245 99 -4482 0 -4483 0 0 -4482z"/>
<path d="M9350 10151 c-640 -230 -1136 -443 -1740 -747 -2106 -1058 -3936
-2593 -5366 -4499 -915 -1219 -1647 -2586 -2163 -4039 l-81 -227 0 -319 0
-320 78 0 78 0 33 67 c18 37 62 119 99 183 36 63 117 207 180 320 63 113 164
293 224 400 333 592 488 1031 488 1377 0 41 4 63 12 63 16 0 171 -85 243 -133
97 -65 234 -211 278 -295 60 -114 89 -242 91 -397 1 -153 -9 -204 -69 -330
-78 -166 -153 -252 -631 -715 -222 -216 -300 -302 -403 -447 l-63 -88 157 -3
c150 -2 158 -1 172 18 86 122 326 384 423 461 97 77 224 152 345 204 73 31
105 39 171 43 141 8 163 -4 339 -183 95 -97 167 -161 195 -175 25 -12 46 -23
48 -25 1 -1 -7 -22 -17 -46 -20 -44 -41 -177 -41 -256 l0 -43 216 0 216 0 -7
32 c-15 67 -163 487 -340 968 -311 842 -415 1171 -485 1535 -86 451 -62 905
70 1318 135 421 339 759 639 1057 328 327 666 515 1056 586 151 28 441 26 597
-4 373 -71 731 -241 1029 -491 317 -265 524 -607 609 -1008 27 -127 38 -387
21 -516 -15 -113 -65 -267 -132 -407 -133 -278 -281 -492 -791 -1140 -360
-459 -501 -667 -643 -955 -116 -235 -178 -439 -204 -669 -6 -49 -13 -91 -15
-94 -22 -22 -282 154 -375 254 -91 97 -212 279 -245 366 -73 192 -52 441 51
618 50 86 241 277 361 360 51 36 170 113 264 171 230 142 352 233 479 359 102
101 107 108 133 185 14 44 26 84 26 88 0 13 -215 -103 -470 -253 -472 -277
-771 -394 -963 -376 -131 12 -155 22 -233 100 -38 39 -101 116 -139 171 -38
55 -91 130 -118 167 l-49 68 22 29 c27 39 60 114 116 265 76 207 108 248 228
292 63 24 204 25 423 5 340 -32 600 37 803 212 94 81 149 154 181 236 19 50
19 53 2 47 -208 -81 -497 -170 -643 -200 -235 -47 -454 -48 -592 -3 -139 45
-233 124 -299 251 l-33 64 11 100 c9 79 18 114 43 164 127 249 387 461 605
492 65 9 68 2 44 -94 -19 -75 -20 -92 -10 -149 37 -202 200 -349 456 -411 210
-52 388 15 507 191 104 153 142 291 120 436 -33 212 -177 363 -465 487 -191
82 -439 116 -624 86 -295 -47 -620 -246 -848 -520 -185 -221 -308 -466 -380
-753 -26 -103 -26 -109 -10 -127 15 -16 15 -22 5 -35 -7 -8 -16 -13 -20 -10
-12 7 -19 -33 -30 -175 -11 -137 -8 -218 21 -450 28 -228 44 -311 105 -560 99
-398 164 -595 437 -1320 117 -310 270 -754 347 -1002 l12 -38 3359 0 3359 0 0
3110 0 3110 -27 -6 c-59 -14 -202 -68 -298 -112 -253 -115 -489 -260 -860
-529 -821 -593 -1064 -746 -1386 -866 -285 -107 -495 -120 -874 -57 -389 66
-797 307 -1071 633 -201 239 -356 529 -425 795 -64 250 -76 565 -30 784 90
421 357 814 756 1113 396 298 891 499 1365 557 59 7 220 12 365 13 224 0 280
-3 405 -23 461 -74 838 -182 1684 -483 214 -77 391 -139 392 -139 2 0 4 86 4
191 l0 192 -44 47 c-100 107 -97 245 9 453 l35 69 0 140 0 140 -127 -119
c-319 -299 -512 -393 -806 -393 -253 1 -449 81 -613 251 -39 41 -88 101 -109
134 -38 59 -139 264 -133 270 2 1 80 8 174 14 211 14 301 29 474 81 262 80
474 169 883 372 l257 127 0 186 0 185 -322 0 -323 -1 -245 -88z m-4284 -2938
c-17 -56 -59 -251 -72 -333 -45 -301 20 -703 182 -1125 77 -201 104 -285 91
-285 -6 0 -87 36 -178 80 -187 90 -386 160 -555 196 -163 34 -476 56 -624 44
-63 -6 -158 -13 -211 -17 l-96 -6 -7 35 c-3 19 -2 59 4 89 26 137 125 255 280
333 50 25 99 46 107 46 12 0 14 12 8 73 -8 93 8 195 44 273 70 151 204 213
426 197 55 -4 104 -8 109 -8 4 0 16 32 26 71 36 142 99 230 206 290 64 36 158
62 227 63 32 1 37 -2 33 -16z m1730 -2833 c63 -31 133 -101 164 -165 20 -42
24 -65 24 -138 -1 -76 -5 -94 -30 -144 -56 -110 -206 -194 -323 -180 -182 22
-314 161 -315 332 0 70 32 149 83 208 96 109 272 147 397 87z"/>
<path d="M7345 7893 c-89 -6 -257 -34 -324 -55 -165 -51 -392 -161 -551 -268
-310 -208 -530 -481 -601 -745 -26 -96 -32 -323 -11 -420 62 -285 214 -526
384 -609 127 -61 236 -70 373 -30 203 58 339 170 390 320 42 124 -3 319 -106
457 -59 80 -139 131 -236 153 -78 17 -120 15 -285 -12 l-38 -7 0 40 c0 56 26
148 62 223 25 51 59 93 162 196 142 142 230 204 364 257 65 26 91 31 167 31
85 1 95 -1 166 -36 146 -72 254 -222 280 -388 13 -87 6 -291 -16 -433 -20
-128 -80 -306 -179 -536 -20 -46 -35 -85 -33 -87 10 -11 142 81 203 141 195
194 267 467 219 835 -19 140 -15 204 18 299 26 78 82 143 151 178 28 14 110
45 181 68 72 23 175 60 230 82 l101 40 43 -39 c24 -21 102 -75 173 -119 147
-93 223 -161 259 -234 22 -45 24 -62 23 -175 -1 -147 -22 -229 -104 -413 -66
-146 -125 -249 -283 -492 -140 -216 -241 -385 -233 -392 14 -15 162 93 247
179 71 73 221 269 367 480 208 300 351 443 527 528 132 64 213 83 350 83 137
0 232 -24 363 -93 l92 -48 0 168 c0 151 -2 169 -17 175 -10 3 -193 69 -408
146 -214 77 -415 149 -445 161 -639 239 -1374 401 -1804 396 -94 -1 -193 -3
-221 -5z"/>
</g>
</svg>
