<svg id="Layer_1" data-name="Layer 1" xmlns="http://www.w3.org/2000/svg" viewBox="0 0 1770 760">
  <title>map</title>
  <rect width="1770" height="760" fill="#edeadc"/>
  <polygon points="1367.211 156.748 1259.17 31.564 1158.424 132.059 1255.433 237.545 1266.927 254.506 1367.211 156.748" fill="#dbcebf"/>
  <path d="M1265.4554,254.9011c3.3961-7.9242,189.0491-181.1249,189.0491-181.1249l32.8289-7.9242,337.3451-332.817" fill="none" stroke="#c3ae95" stroke-miterlimit="10" stroke-width="12.4329"/>
  <polygon points="963.842 -232.277 1090.062 134.437 1115.977 130.838 1101.311 -16.365 1103.06 -55.743 1101.311 -83.012 1090.062 -133.857 1067.531 -171.289 1004.383 -253.805 963.842 -232.277" fill="#dbcebf"/>
  <path d="M1101.311,777.4125l107.5429-180.1052-1.5654-7.5822-50.0275-242.3135C1130.7923,219.208,1101.2537,91.5207,1102.8-40.23c0.2639-22.4793,3.95-44.903-2.4048-66.5431-8.4378-28.7353-24.5381-56.258-44.3656-78.6853L978.9123-288.2511" fill="none" stroke="#c3ae95" stroke-miterlimit="10" stroke-width="12.4329"/>
  <polyline points="994.733 137.28 1161.651 130.761 1265.455 254.901 1359.414 642.055 1536.011 798.276" fill="none" stroke="#c3ae95" stroke-miterlimit="10" stroke-width="12.4329"/>
  <polygon points="1388.496 249.807 1411.636 339.306 1550.495 305.937 1522.508 200.447 1385.571 237.905 1388.496 249.807" fill="#dbcebf"/>
  <line x1="974.5236" y1="-213.7595" x2="1090.062" y2="134.437" fill="none" stroke="#c3ae95" stroke-miterlimit="10" stroke-width="12.4329"/>
  <polyline points="1004.383 399.779 1112.325 373.629 1980.899 163.207" fill="none" stroke="#c3ae95" stroke-miterlimit="10" stroke-width="12.4329"/>
  <polyline points="2057.877 107.737 1153.016 326.956 1112.325 373.629 1163.573 399.779 2069.197 179.055" fill="none" stroke="#c3ae95" stroke-miterlimit="10" stroke-width="12.4329"/>
  <path d="M-80.5235-279.974A1010.6707,1010.6707,0,0,0,75.8242-156.198c93.72,60.17,198.2745,105.506,279.71,181.4812,40.5778,37.8572,74.2789,82.334,109.94,124.8551,41.2452,49.18,85.5546,96.2815,119.39,150.8256,32.8639,52.9788,55.0567,111.7105,79.5493,169.042a2172.6032,2172.6032,0,0,0,371.207,586.2522" fill="none" stroke="#0099d1" stroke-miterlimit="10" stroke-width="2.1529"/>
  <polyline points="1175.423 435.38 1714.871 295.654 1767.225 252.654" fill="none" stroke="#c3ae95" stroke-miterlimit="10" stroke-width="12.4329"/>
  <path d="M1824.6784,321.6909c-110.939-18.1125-123.3913,38.489-123.3913,38.489l-341.8732,96.2226-51.3509-25.9373-132.64,32.7293c-3.2827.81-17.0127-8.6235-20.3281-9.9945-14.0434-5.8071-29.6455-10.6605-45.0173-9.89-57.8614,2.9007-52.5628,85.31-9.0057,105.9,35.504,16.7826,70.433-23.1309,87.5648-49.823l170.7766-42.9841" fill="none" stroke="#c3ae95" stroke-miterlimit="10" stroke-width="12.4329"/>
  <polyline points="1197.735 101.454 1285.589 192.998 1310.846 242.628 1322.057 285.992 1331 320.425 1331 360.18 1358.508 456.402 1373.678 522.06" fill="none" stroke="#c3ae95" stroke-miterlimit="10" stroke-width="12"/>
  <polygon points="1344.008 -41.851 1428.8 43.299 1575.632 -94.116 1491.044 -185.459 1344.008 -41.851" fill="#dbcebf"/>
  <path d="M1116.9853,143.3172L1147.7242,201h27.1687l88.8654,377.597s10.7532,17.5789-7.3592,39.0875-123.9573,167.6179-123.9573,167.6179" fill="none" stroke="#c3ae95" stroke-miterlimit="10" stroke-width="12"/>
  <polyline points="1143.549 281.493 1188.043 254.901 1245.447 233.145 1743.172 -260.173" fill="none" stroke="#c3ae95" stroke-miterlimit="10" stroke-width="12.4329"/>
  <path d="M1162.4406-185.4588s-35.09,69.0487,19.24,105.2756c23.32,15.55,18.1017,37.52,28.2549,59.7979,2.34,5.1347,6.1467,9.4347,9.8975,13.65,49.8476,56.0258,98.1926,113.3325,147.3783,169.9415L1434.1063,435.38" fill="none" stroke="#c3ae95" stroke-miterlimit="10" stroke-width="12.4329"/>
  <polyline points="1101.311 -247.72 1522.426 203.96 1585.82 444.792 1854.111 747.334" fill="none" stroke="#c3ae95" stroke-miterlimit="10" stroke-width="12.4329"/>
  <line x1="1263.7584" y1="43.2991" x2="1343.5655" y2="-283.9454" fill="none" stroke="#c3ae95" stroke-miterlimit="10" stroke-width="12.4329"/>
  <polyline points="1116.985 -260.173 1225.834 -144.706 1310.784 -149.526 1627.705 174.527 1677.514 328.483 1813.394 492.042" fill="none" stroke="#c3ae95" stroke-miterlimit="10" stroke-width="12.4329"/>
  <polyline points="1348.143 415.636 1682.702 334.727 1714.871 295.654" fill="none" stroke="#c3ae95" stroke-miterlimit="10" stroke-width="12.4329"/>
  <polyline points="1403.544 76.448 1503.182 492.627 1759.021 784.691" fill="none" stroke="#c3ae95" stroke-miterlimit="10" stroke-width="12.4329"/>
  <polyline points="1403.544 681.093 1683.175 444.792 1911.845 372.632" fill="none" stroke="#c3ae95" stroke-miterlimit="10" stroke-width="12.4329"/>
  <polyline points="1343.565 -41.42 1575.632 189.243 1631.988 379.685 1907.317 719.034" fill="none" stroke="#c3ae95" stroke-miterlimit="10" stroke-width="12.4329"/>
  <polyline points="1317.025 -175.117 1458.38 -39.661 1498.132 -17.302 1665.062 163.207" fill="none" stroke="#c3ae95" stroke-miterlimit="10" stroke-width="12.4329"/>
  <polyline points="1438.995 224.526 1575.549 188.924 1886.94 107.737" fill="none" stroke="#c3ae95" stroke-miterlimit="10" stroke-width="12.4329"/>
  <polyline points="1356.018 -220.552 1650.346 94.153 1714.871 112.265 1774.869 253.758 1830.339 318.116" fill="none" stroke="#c3ae95" stroke-miterlimit="10" stroke-width="12.4329"/>
  <path d="M1575.5487,188.9236l115.55-112.4752s29.4328-50.2174,23.7726-76.2541c-1.2033-5.5352-2.3043-21.0472-3.2921-42.0439-3.6586-77.7678-5.7642-230.7755-5.7642-230.7755" fill="none" stroke="#c3ae95" stroke-miterlimit="10" stroke-width="12.4329"/>
  <path d="M995.1106,216.3442c-250.3366-16.8-547.9538,156.2881-547.9538,156.2881l-16.5052,12.9605" fill="none" stroke="#c3ae95" stroke-miterlimit="10" stroke-width="20.3765"/>
  <polyline points="1004.383 435.658 234.024 631.018 -26.471 831.234" fill="none" stroke="#c3ae95" stroke-miterlimit="10" stroke-width="12.4329"/>
  <polyline points="-1132.303 371.612 424.826 381.531 550 553.2 550 1249" fill="none" stroke="#c3ae95" stroke-miterlimit="10" stroke-width="12"/>
  <polyline points="42 -344 42 611.643 24 650.394 24 1111" fill="none" stroke="#c3ae95" stroke-miterlimit="10" stroke-width="12"/>
  <polyline points="-607.742 -303.321 272.776 166.132 356.737 253.758" fill="none" stroke="#c3ae95" stroke-linecap="round" stroke-miterlimit="10" stroke-width="10.7643"/>
  <line x1="23" y1="653" x2="-1046" y2="653" fill="none" stroke="#c3ae95" stroke-miterlimit="10" stroke-width="12"/>
  <path d="M556.9525-283.9454l320.7755,500.29s77.8537,138.3393,49.6911,238.8317,61.336,263.6755,130.2274,322.2366" fill="none" stroke="#c3ae95" stroke-miterlimit="10" stroke-width="10.7643"/>
  <path d="M1018.9176,588.8582c4.0562,27.17,43.6711,199.2985-324.1823,209.4175" fill="none" stroke="#c3ae95" stroke-miterlimit="10" stroke-width="20.3765"/>
  <polyline points="995.111 216.344 1059.992 213.016 1092.255 202.828 1575.632 -266.965" fill="none" stroke="#c3ae95" stroke-miterlimit="10" stroke-width="20.3765"/>
  <path d="M1830.3386,549.229c-336.213,29.4328-456.2083,206.03-456.2083,206.03l-70.4685,136.2547c-3.2184-25.5043-35.4216-47.47-53.8443-61.6461-31.128-23.9529-64.6281-44.8564-98.44-64.772-23.7832-14.0087-50.0243-24.5508-70.9453-43.2414-23.6295-21.11-39.0392-50.1638-48.5535-80.3875-12.5885-39.99-19.5958-85.41-21.7088-127.21l-4.3437-85.929L996.502,243.8695Q993.8955,192.3,991.3436,140.728c-1.6371-32.8394-.3674-67.5415-5.7684-99.9462-7.0983-42.5876-25.2982-83.109-39.1246-123.8578l-25.1324-74.07L841.1295-451.8682" fill="none" stroke="#c3ae95" stroke-miterlimit="10" stroke-width="20.3765"/>
  <path d="M1283.2258,645.6l-8.0051-24.4243s62.0184-69.98,79.9588-73.9273,14.3246-.0063,14.3246-0.0063l-6.1137-24.761,28.339-7.8954,4.661,22.963,11.48-1.0768,1.7932-11.583,44.1331,3.6889-2.5119-6.4586,30.14-5.0234-4.0873-19.7345L1504,492.3384v24.7578l-11,5.0233v3.5881l36.0137,43.2617-37.4292,36.0351-10.3274-11.1231-37.95,4.4123-3.1873-13.3825-52.3652,16.5052,3.5986,7.535-12.9119,19.0169-15.9633,2.9217,10.5983,17.53-35.3694,33.01-27.7933-38.3926Z" fill="#928370"/>
  <g>
    <path d="M1350.35,566.6973a0.2433,0.2433,0,0,1,.1836-0.2842l2.8467-.5273a4.5235,4.5235,0,1,1,1.6484,8.8955l-2.8467.5273a0.2425,0.2425,0,0,1-.2734-0.1982Zm4.4023,7.2285a3.6382,3.6382,0,0,0-1.3262-7.1543l-1.9951.3691,1.3252,7.1543Z"/>
    <path d="M1360.0322,573.5117l2.2793-9.2676a0.2327,0.2327,0,0,1,.19-0.18l0.127-.0234a0.23,0.23,0,0,1,.2412.1l5.4229,7.8408a0.2287,0.2287,0,0,1-.1553.3711l-0.5078.0947a0.2371,0.2371,0,0,1-.2422-0.1016l-1.3291-1.9209-4.5117.8359-0.5391,2.2676a0.2367,0.2367,0,0,1-.1895.1807l-0.5088.0938A0.2283,0.2283,0,0,1,1360.0322,573.5117Zm5.5381-3.8125c-0.88-1.2686-1.749-2.5537-2.6279-3.8242l-0.1016.0186-1.083,4.5117Z"/>
    <path d="M1368.0674,563.4141a0.2462,0.2462,0,0,1,.1973-0.2861l0.4951-.0918a0.2541,0.2541,0,0,1,.2861.1963l1.4453,7.8027,3.66-.6777a0.2455,0.2455,0,0,1,.2861.1963l0.0684,0.3691a0.245,0.245,0,0,1-.1963.2861l-4.3975.8145a0.2448,0.2448,0,0,1-.2861-0.1963Z"/>
    <path d="M1374.3418,562.252a0.2455,0.2455,0,0,1,.1963-0.2861l0.4961-.0918a0.2541,0.2541,0,0,1,.2861.1963l1.4453,7.8027,3.66-.6777a0.2448,0.2448,0,0,1,.2861.1963l0.0684,0.3691a0.2462,0.2462,0,0,1-.1973.2861l-4.3965.8145a0.2455,0.2455,0,0,1-.2861-0.1963Z"/>
    <path d="M1381.0264,569.6221l2.2793-9.2676a0.2327,0.2327,0,0,1,.19-0.18l0.127-.0234a0.23,0.23,0,0,1,.2412.1l5.4229,7.8408a0.2287,0.2287,0,0,1-.1553.3711l-0.5078.0938a0.2367,0.2367,0,0,1-.2422-0.1006l-1.3291-1.9209-4.5117.8359-0.5381,2.2676a0.2393,0.2393,0,0,1-.19.1807l-0.5088.0938A0.2283,0.2283,0,0,1,1381.0264,569.6221Zm5.5381-3.8125c-0.88-1.2686-1.749-2.5537-2.6279-3.8242l-0.1016.0186-1.083,4.5117Z"/>
    <path d="M1389.9229,566.9355l0.1455-.2764c0.0957-.1885.1855-0.2705,0.3926-0.1514a3.7644,3.7644,0,0,0,2.3574.5225,1.5628,1.5628,0,0,0,1.4346-1.7637c-0.1621-.877-1.02-1.2441-2.5957-1.5957-1.5088-.3389-2.4463-0.7178-2.7148-2.166a2.46,2.46,0,0,1,2.2881-2.7627,4.2211,4.2211,0,0,1,2.293.2451,0.2963,0.2963,0,0,1,.1563.418l-0.0869.2393c-0.0693.1963-.209,0.2227-0.4336,0.1455a3.0431,3.0431,0,0,0-1.7842-.1953,1.5428,1.5428,0,0,0-1.4951,1.7236c0.167,0.9023.8887,1.1758,2.0381,1.4219,1.8457,0.3818,3.0713.8252,3.3447,2.2988a2.6073,2.6073,0,0,1-2.3125,2.8467,4.2114,4.2114,0,0,1-2.8711-.5322A0.2715,0.2715,0,0,1,1389.9229,566.9355Z"/>
    <path d="M1402.8271,556.5928a4.5509,4.5509,0,0,1,3.2939.6113,0.2518,0.2518,0,0,1,.0791.3545l-0.28.4063c-0.0781.1465-.1816,0.1514-0.333,0.0479a3.7848,3.7848,0,0,0-2.6035-.5029,3.7176,3.7176,0,0,0,1.3535,7.3076,3.4653,3.4653,0,0,0,2.251-1.4033,0.22,0.22,0,0,1,.333-0.0479l0.3467,0.2373a0.2486,0.2486,0,0,1,.0508.3467,4.5835,4.5835,0,0,1-2.7969,1.791A4.652,4.652,0,1,1,1402.8271,556.5928Z"/>
    <path d="M1411.5908,554.97a4.6521,4.6521,0,1,1-3.7129,5.4316A4.6432,4.6432,0,0,1,1411.5908,554.97Zm1.53,8.26a3.7483,3.7483,0,1,0-4.3535-2.9932A3.7568,3.7568,0,0,0,1413.1211,563.2295Z"/>
    <path d="M1418.083,554.0029a0.2427,0.2427,0,0,1,.1992-0.2734l0.19-.0352a0.2211,0.2211,0,0,1,.2217.0635l6.96,5.9922,0.0254-.0049-1.2549-6.7725a0.245,0.245,0,0,1,.1973-0.2861l0.4443-.083a0.2548,0.2548,0,0,1,.2861.1973l1.585,8.5518a0.2422,0.2422,0,0,1-.2.2725l-0.1006.02a0.2192,0.2192,0,0,1-.2227-0.0645l-7.0869-6.1133-0.0127.0029,1.2813,6.9141a0.2462,0.2462,0,0,1-.1973.2861l-0.4443.082a0.2535,0.2535,0,0,1-.2861-0.1963Z"/>
    <path d="M1426.6719,552.6475a0.2285,0.2285,0,0,1,.1553-0.37l0.5088-.0937a0.2346,0.2346,0,0,1,.2412.1l4.4834,6.53,0.0508-.01,1.8457-7.7021a0.25,0.25,0,0,1,.19-0.18l0.5078-.0947a0.2282,0.2282,0,0,1,.2773.29l-2.2783,9.2686a0.2463,0.2463,0,0,1-.19.1787l-0.127.0234a0.2611,0.2611,0,0,1-.2422-0.0986Z"/>
    <path d="M1436.207,550.7891a0.2462,0.2462,0,0,1,.1973-0.2861l5.0068-.9277a0.2455,0.2455,0,0,1,.2861.1963l0.0684,0.3691a0.245,0.245,0,0,1-.1963.2861l-4.2705.792,0.5742,3.1,3.6484-.6758a0.2548,0.2548,0,0,1,.2861.1973l0.0684,0.3682a0.2457,0.2457,0,0,1-.1973.2861l-3.6475.6758,0.6006,3.24,4.27-.791a0.2477,0.2477,0,0,1,.2871.1973l0.0684,0.3691a0.2448,0.2448,0,0,1-.1973.2852l-5.0068.9277a0.2448,0.2448,0,0,1-.2861-0.1963Z"/>
    <path d="M1443.4971,549.2939a0.2432,0.2432,0,0,1,.1992-0.2734l0.19-.0352a0.2211,0.2211,0,0,1,.2217.0635l6.96,5.9922,0.0254-.0049-1.2549-6.7725a0.2462,0.2462,0,0,1,.1973-0.2861l0.4443-.082a0.2541,0.2541,0,0,1,.2861.1963l1.585,8.5518a0.2432,0.2432,0,0,1-.2.2734l-0.1006.0186a0.2207,0.2207,0,0,1-.2227-0.0635l-7.0869-6.1133-0.0127.002,1.2813,6.9141a0.2457,0.2457,0,0,1-.1973.2861l-0.4443.082a0.2535,0.2535,0,0,1-.2861-0.1963Z"/>
    <path d="M1454.877,547.9609l-2.2109.41a0.2455,0.2455,0,0,1-.2861-0.1973l-0.0684-.3682a0.245,0.245,0,0,1,.1973-0.2861l5.3877-.998a0.2448,0.2448,0,0,1,.2861.1963l0.0684,0.3682a0.246,0.246,0,0,1-.1963.2871l-2.2119.4092,1.4463,7.8027a0.2548,0.2548,0,0,1-.1973.2861l-0.4824.09a0.2548,0.2548,0,0,1-.2861-0.1973Z"/>
    <path d="M1459.7295,546.4307a0.2529,0.2529,0,0,1,.1973-0.2852l0.5078-.0947a0.2541,0.2541,0,0,1,.2861.1963l1.56,8.4131a0.2548,0.2548,0,0,1-.1973.2861l-0.5088.0947a0.2548,0.2548,0,0,1-.2861-0.1973Z"/>
    <path d="M1467.0938,544.6855a4.652,4.652,0,1,1-3.7129,5.4326A4.6429,4.6429,0,0,1,1467.0938,544.6855Zm1.53,8.26a3.7483,3.7483,0,1,0-4.3535-2.9922A3.7566,3.7566,0,0,0,1468.624,552.9453Z"/>
    <path d="M1473.5859,543.72a0.2427,0.2427,0,0,1,.1992-0.2734l0.19-.0352a0.2227,0.2227,0,0,1,.2217.0625l6.959,5.9922,0.0254-.0049-1.2549-6.7725a0.2462,0.2462,0,0,1,.1973-0.2861l0.4443-.082a0.2535,0.2535,0,0,1,.2861.1963l1.585,8.5518a0.2432,0.2432,0,0,1-.1992.2734l-0.1016.0186a0.219,0.219,0,0,1-.2217-0.0635l-7.0869-6.1133-0.0137.0029,1.2813,6.9141a0.2455,0.2455,0,0,1-.1963.2861l-0.4453.082a0.253,0.253,0,0,1-.2852-0.1963Z"/>
    <path d="M1399.5742,572.96a4.5512,4.5512,0,0,1,3.2939.6123,0.25,0.25,0,0,1,.0791.3535l-0.2793.4072c-0.0791.1455-.1826,0.1514-0.333,0.0479a3.7837,3.7837,0,0,0-2.6045-.5039,3.7177,3.7177,0,0,0,1.3545,7.3076,3.462,3.462,0,0,0,2.25-1.4023,0.22,0.22,0,0,1,.333-0.0488l0.3467,0.2373a0.2486,0.2486,0,0,1,.0508.3467,4.5828,4.5828,0,0,1-2.7959,1.792A4.6526,4.6526,0,1,1,1399.5742,572.96Z"/>
    <path d="M1404.5811,572.4131a0.2434,0.2434,0,0,1,.1963-0.2852l5.0068-.9277a0.2463,0.2463,0,0,1,.2871.1963l0.0674,0.3682a0.2453,0.2453,0,0,1-.1963.2871l-4.2705.791,0.5752,3.1006,3.6475-.6758a0.2536,0.2536,0,0,1,.2852.1963l0.0684,0.3691a0.2448,0.2448,0,0,1-.1963.2861l-3.6475.6758,0.6006,3.24,4.2705-.791a0.2453,0.2453,0,0,1,.2861.1973l0.0684,0.3682a0.2462,0.2462,0,0,1-.1973.2861l-5.0068.9277a0.2462,0.2462,0,0,1-.2861-0.1973Z"/>
    <path d="M1411.87,570.918a0.2423,0.2423,0,0,1,.1992-0.2725l0.19-.0361a0.2253,0.2253,0,0,1,.2227.0645l6.959,5.9922,0.0254-.0049-1.2549-6.7734a0.2455,0.2455,0,0,1,.1973-0.2861l0.4443-.082a0.2541,0.2541,0,0,1,.2861.1963l1.585,8.5527a0.2432,0.2432,0,0,1-.1992.2734l-0.1016.0186a0.2233,0.2233,0,0,1-.2227-0.0635l-7.0869-6.1133-0.0127.0029,1.2813,6.9121a0.2457,0.2457,0,0,1-.1973.2861l-0.4443.083a0.2548,0.2548,0,0,1-.2861-0.1973Z"/>
    <path d="M1423.25,569.5859l-2.2109.4092a0.2448,0.2448,0,0,1-.2861-0.1973l-0.0684-.3682a0.2455,0.2455,0,0,1,.1963-0.2861l5.3887-.998a0.2448,0.2448,0,0,1,.2861.1963l0.0684,0.3682a0.246,0.246,0,0,1-.1963.2871l-2.2109.4092,1.4453,7.8027a0.2539,0.2539,0,0,1-.1973.2861l-0.4824.09a0.2541,0.2541,0,0,1-.2861-0.1963Z"/>
    <path d="M1428.1025,568.0557a0.2443,0.2443,0,0,1,.1963-0.2861l5.0068-.9277a0.2463,0.2463,0,0,1,.2871.1963l0.0674,0.3682a0.2453,0.2453,0,0,1-.1963.2871l-4.2705.791,0.5752,3.1006,3.6475-.6758a0.2541,0.2541,0,0,1,.2861.1963l0.0684,0.3691a0.2455,0.2455,0,0,1-.1973.2861l-3.6475.6758,0.6006,3.24,4.2705-.791a0.2453,0.2453,0,0,1,.2861.1973l0.0684,0.3682a0.2462,0.2462,0,0,1-.1973.2861l-5.0068.9277a0.2455,0.2455,0,0,1-.2861-0.1963Z"/>
    <path d="M1435.418,566.7a0.2457,0.2457,0,0,1,.1973-0.2861l3.291-.6094a2.7772,2.7772,0,0,1,3.2725,2.1934,2.8867,2.8867,0,0,1-1.4014,2.9414l2.3389,2.9033a0.2448,0.2448,0,0,1-.1475.4092l-0.6094.1133a0.28,0.28,0,0,1-.3154-0.14l-2.2607-2.9834-2.4277.4492,0.6,3.24a0.2541,0.2541,0,0,1-.1963.2861l-0.4951.0918a0.2465,0.2465,0,0,1-.2871-0.1963Zm4.2725,3.69a1.8543,1.8543,0,1,0-.6758-3.6465l-2.4658.4561,0.6758,3.6465Z"/>
  </g>
  <polygon points="1255.215 496.176 1276.369 582.918 1298.709 575.693 1278.116 490.903 1255.215 496.176" fill="#928370"/>
  <g>
    <path d="M1278.3652,520.3193a4.6524,4.6524,0,1,1-5.6387-3.3916A4.6435,4.6435,0,0,1,1278.3652,520.3193Zm-8.1562,2.0068a3.7477,3.7477,0,1,0,2.7344-4.52A3.7549,3.7549,0,0,0,1270.209,522.3262Z"/>
    <path d="M1280.0049,527.7354a0.2521,0.2521,0,0,1,.2314.1836l0.0488,0.2a0.2436,0.2436,0,0,1-.085.2471l-6.3037,4.1875c0.0059,0.0244.0088,0.0371,0.0156,0.0625l7.5176,0.7451a0.2469,0.2469,0,0,1,.19.1807l0.0488,0.2a0.25,0.25,0,0,1-.12.27l-8.0352,3.6934a0.224,0.224,0,0,1-.3555-0.1514l-0.124-.5029a0.2645,0.2645,0,0,1,.12-0.2686l6.1875-2.708-0.0117-.05-7.1953-.6777a0.264,0.264,0,0,1-.19-0.18l-0.0557-.2256a0.266,0.266,0,0,1,.0859-0.248l6.0518-3.9648c-0.0029-.0127-0.0088-0.0371-0.0127-0.0508l-6.7314.5a0.2526,0.2526,0,0,1-.2314-0.1826l-0.123-.5029a0.2248,0.2248,0,0,1,.2451-0.3Z"/>
    <path d="M1282.3525,537.4941a0.243,0.243,0,0,1,.2852.1826l0.0459,0.1885a0.2191,0.2191,0,0,1-.0508.2246l-5.5781,7.2969,0.0059,0.0244,6.6895-1.6465a0.2453,0.2453,0,0,1,.2969.18l0.1084,0.4395a0.2537,0.2537,0,0,1-.1807.2969l-8.4453,2.0791a0.244,0.244,0,0,1-.2852-0.1826l-0.0244-.1006a0.22,0.22,0,0,1,.0518-0.2246l5.6914-7.4316-0.0029-.0117-6.8271,1.6807a0.2444,0.2444,0,0,1-.2969-0.1807l-0.1084-.4395a0.2545,0.2545,0,0,1,.18-0.2969Z"/>
    <path d="M1284.69,547.5859a0.2565,0.2565,0,0,1,.2979.1807l0.123,0.502a0.2534,0.2534,0,0,1-.18.2969l-8.3086,2.0449a0.2536,0.2536,0,0,1-.2969-0.18l-0.123-.502a0.2547,0.2547,0,0,1,.18-0.2979Z"/>
  </g>
  <g>
    <path d="M1390.6094,448.5332l-4.2568-3.332a0.2431,0.2431,0,0,1,.0967-0.4238l0.5918-.1709a0.2809,0.2809,0,0,1,.2344.0547l3.5645,2.78,1.5283-4.2539a0.284,0.284,0,0,1,.1689-0.1719l0.5928-.1719a0.2429,0.2429,0,0,1,.3066.3076l-1.86,5.0869,1.1641,4.0215a0.2588,0.2588,0,0,1-.17.3086l-0.4922.1426a0.2487,0.2487,0,0,1-.3086-0.17Z"/>
    <path d="M1399.1445,440.9658a4.7242,4.7242,0,1,1-3.209,5.86A4.716,4.716,0,0,1,1399.1445,440.9658Zm2.3711,8.1943a3.8058,3.8058,0,1,0-4.6973-2.5889A3.8139,3.8139,0,0,0,1401.5156,449.16Z"/>
    <path d="M1406.5117,439.23a0.2576,0.2576,0,0,1,.17-0.3086l0.4795-.1387a0.2481,0.2481,0,0,1,.3076.17l1.5361,5.3066a2.483,2.483,0,1,0,4.7725-1.3535l-1.543-5.332a0.2483,0.2483,0,0,1,.17-0.3086l0.4795-.1387a0.258,0.258,0,0,1,.3086.17l1.5576,5.3828a3.4775,3.4775,0,0,1-6.6807,1.9336Z"/>
    <path d="M1416.43,436.21a0.2485,0.2485,0,0,1,.1738-0.2969l0.1895-.0547a0.224,0.224,0,0,1,.23.043l7.6309,5.3594,0.0254-.0078-1.9443-6.7178a0.249,0.249,0,0,1,.17-0.3086l0.4414-.127a0.2562,0.2562,0,0,1,.3086.17l2.4551,8.4824a0.2476,0.2476,0,0,1-.1738.2969l-0.1006.0283a0.2213,0.2213,0,0,1-.23-0.042l-7.7715-5.47-0.0127.0039,1.9844,6.8574a0.25,0.25,0,0,1-.1709.3086l-0.44.1279a0.26,0.26,0,0,1-.31-0.17Z"/>
    <path d="M1430.9121,431.7725a4.6115,4.6115,0,0,1,3.3887.29,0.2525,0.2525,0,0,1,.1152.3486c-0.08.1465-.1826,0.3135-0.25,0.4561-0.0771.1582-.1572,0.167-0.332,0.082a3.9817,3.9817,0,0,0-2.6787-.291,3.7816,3.7816,0,0,0,2.1006,7.2607,4.9451,4.9451,0,0,0,2.1162-1.1855l-0.5107-1.7656-1.45.42a0.237,0.237,0,0,1-.3047-0.1572l-0.1357-.4658a0.2416,0.2416,0,0,1,.17-0.3086l2.1816-.6318a0.2471,0.2471,0,0,1,.2959.1738l0.835,2.8857a0.3233,0.3233,0,0,1-.042.2324,6.4823,6.4823,0,0,1-2.873,1.7324A4.7242,4.7242,0,1,1,1430.9121,431.7725Z"/>
  </g>
  <g>
    <path d="M1288.4551,331.2134a0.25,0.25,0,0,1,.3.186l0.1182,0.4971a0.26,0.26,0,0,1-.1855.3013l-7.84,1.8564,0.8711,3.6768a0.251,0.251,0,0,1-.1865.3008l-0.37.0874a0.25,0.25,0,0,1-.3-0.1855l-1.0459-4.418a0.25,0.25,0,0,1,.1855-0.3008Z"/>
    <path d="M1281.542,339.3237l9.5137,1.8472a0.236,0.236,0,0,1,.1914.1846l0.03,0.127a0.2352,0.2352,0,0,1-.0889.25l-7.6807,5.8911a0.2314,0.2314,0,0,1-.3838-0.1382l-0.1211-.5117a0.24,0.24,0,0,1,.0889-0.249l1.8838-1.4443-1.0732-4.5332-2.3281-.4336a0.238,0.238,0,0,1-.1914-0.1836l-0.1211-.5107A0.2311,0.2311,0,0,1,1281.542,339.3237Zm4.1436,5.4243c1.2441-.9551,2.5029-1.9014,3.7471-2.8555l-0.0244-.1016-4.63-.873Z"/>
    <path d="M1292.8613,348.97a0.2553,0.2553,0,0,1,.2334.1885l0.0479,0.2041a0.248,0.248,0,0,1-.0879.25l-6.4375,4.1943,0.0146,0.0645,7.626,0.8242a0.2491,0.2491,0,0,1,.1914.1836l0.0488,0.2041a0.2533,0.2533,0,0,1-.125.2725l-8.19,3.6787a0.229,0.229,0,0,1-.3613-0.1572l-0.1211-.5107a0.27,0.27,0,0,1,.124-0.2725l6.3076-2.6934-0.0117-.0518-7.2988-.752a0.2694,0.2694,0,0,1-.1924-0.1836l-0.0547-.23a0.27,0.27,0,0,1,.09-0.251l6.18-3.9707-0.0117-.0518-6.84.4473a0.255,0.255,0,0,1-.2324-0.1885l-0.1211-.5107a0.228,0.228,0,0,1,.252-0.3018Z"/>
    <path d="M1286.6133,360.74l9.5137,1.8481a0.2349,0.2349,0,0,1,.1914.1826l0.03,0.1289a0.2384,0.2384,0,0,1-.0889.25l-7.6816,5.89a0.2307,0.2307,0,0,1-.3828-0.1372l-0.1211-.5107a0.242,0.242,0,0,1,.0889-0.251l1.8838-1.4434-1.0742-4.5342-2.3271-.4326a0.2417,0.2417,0,0,1-.1924-0.1836l-0.1211-.5107A0.2327,0.2327,0,0,1,1286.6133,360.74Zm4.1426,5.4253c1.2441-.9561,2.5039-1.9014,3.748-2.8564l-0.0254-.1025-4.6289-.8721Z"/>
    <path d="M1297.4844,369.3462a0.248,0.248,0,0,1,.2988.1851l0.7832,3.3076a2.8187,2.8187,0,0,1-2.0605,3.4268,2.93,2.93,0,0,1-3.0518-1.2725l-2.83,2.5171a0.2477,0.2477,0,0,1-.4209-0.1294l-0.1455-.6123a0.285,0.285,0,0,1,.125-0.3267l2.9141-2.4429-0.5771-2.4385-3.2559.7705a0.2588,0.2588,0,0,1-.3008-0.1855l-0.1172-.498a0.2483,0.2483,0,0,1,.1846-0.3Zm-3.5293,4.5166a1.8832,1.8832,0,1,0,3.665-.8677l-0.5869-2.4766-3.665.8677Z"/>
  </g>
  <g>
    <path d="M1341.9355,380.7354a4.6133,4.6133,0,0,1-.3408,3.3848,0.2549,0.2549,0,0,1-.3516.1094c-0.1445-.083-0.31-0.1885-0.4512-0.2578-0.1572-.08-0.165-0.1592-0.0771-0.3335a3.9837,3.9837,0,0,0,.332-2.6748,3.7822,3.7822,0,0,0-7.293,1.99,4.95,4.95,0,0,0,1.1543,2.1343l1.7715-.4834-0.3965-1.4551a0.2376,0.2376,0,0,1,.1621-0.3032l0.4678-.1279a0.2415,0.2415,0,0,1,.3066.1753l0.5977,2.1895a0.2468,0.2468,0,0,1-.1787.2935l-2.8984.791a0.3238,0.3238,0,0,1-.23-0.0454,6.4844,6.4844,0,0,1-1.6885-2.8989A4.7238,4.7238,0,1,1,1341.9355,380.7354Z"/>
    <path d="M1343.27,387.0649a0.247,0.247,0,0,1,.3047.1748l0.8955,3.2793a2.82,2.82,0,0,1-1.9434,3.4956,2.9308,2.9308,0,0,1-3.0937-1.1694l-2.7422,2.6118a0.2493,0.2493,0,0,1-.4268-0.1147l-0.165-.6074a0.2844,0.2844,0,0,1,.1143-0.3311l2.83-2.5405-0.66-2.418-3.2285.8813a0.2589,0.2589,0,0,1-.3066-0.1758l-0.1348-.4932a0.2487,0.2487,0,0,1,.1758-0.3057Zm-3.375,4.6333a1.8834,1.8834,0,1,0,3.6338-.9917l-0.67-2.4551-3.6338.9917Z"/>
    <path d="M1345.7734,396.2437a0.2591,0.2591,0,0,1,.3066.1748l0.1377,0.5068a0.2579,0.2579,0,0,1-.1748.3057l-8.3809,2.2871a0.2581,0.2581,0,0,1-.3057-0.1748l-0.1387-.5068a0.2587,0.2587,0,0,1,.1748-0.3057Z"/>
    <path d="M1346.9658,400.6108a0.25,0.25,0,0,1,.3057.1748l1.3613,4.9888a0.2483,0.2483,0,0,1-.1748.3057l-0.3672.1006a0.2492,0.2492,0,0,1-.3057-0.1748l-1.1611-4.2539-3.4687.9463,0.9912,3.6328a0.2592,0.2592,0,0,1-.1738.3076l-0.3682.1a0.2574,0.2574,0,0,1-.3057-0.1758l-0.9922-3.6328-3.4551.9434a0.258,0.258,0,0,1-.3066-0.1758l-0.1348-.4941a0.25,0.25,0,0,1,.1748-0.3057Z"/>
    <path d="M1349.1523,408.624a0.251,0.251,0,0,1,.3066.1748l1.3613,4.9893a0.25,0.25,0,0,1-.1748.3057l-0.3682.1006a0.25,0.25,0,0,1-.3057-0.1748l-1.1611-4.2539-3.4687.9463,0.9922,3.6338a0.26,0.26,0,0,1-.1748.3066l-0.3682.1a0.2568,0.2568,0,0,1-.3057-0.1748l-0.9912-3.6338-3.4561.9434a0.258,0.258,0,0,1-.3066-0.1758l-0.1348-.4941a0.25,0.25,0,0,1,.1748-0.3057Z"/>
    <path d="M1351.34,416.6387a0.258,0.258,0,0,1,.3057.1748l0.1387,0.5068a0.2587,0.2587,0,0,1-.1748.3066l-8.3809,2.2861a0.2572,0.2572,0,0,1-.3066-0.1738l-0.1377-.5068a0.2583,0.2583,0,0,1,.1748-0.3066Z"/>
    <path d="M1352.6709,420.9688a0.2465,0.2465,0,0,1,.293.1787l0.0518,0.19a0.2247,0.2247,0,0,1-.0449.2295l-5.4766,7.5479,0.0068,0.0244,6.748-1.8408a0.2481,0.2481,0,0,1,.3057.1748l0.1211,0.4424a0.26,0.26,0,0,1-.1748.3066l-8.5205,2.3242a0.2446,0.2446,0,0,1-.293-0.1777l-0.0273-.1006a0.2243,0.2243,0,0,1,.0449-0.2295l5.5889-7.6875-0.0039-.0127-6.8867,1.8789a0.2489,0.2489,0,0,1-.3066-0.1738l-0.1211-.4434a0.26,0.26,0,0,1,.1748-0.3066Z"/>
  </g>
  <g>
    <path d="M1466.4824,358.501l9.5107,1.856a0.2343,0.2343,0,0,1,.1914.1846l0.03,0.127a0.2348,0.2348,0,0,1-.0889.25l-7.6865,5.8843a0.2313,0.2313,0,0,1-.3828-0.1382l-0.1211-.5117a0.2415,0.2415,0,0,1,.09-0.25l1.8848-1.4414-1.07-4.5352-2.3262-.4355a0.2369,0.2369,0,0,1-.1914-0.1836l-0.1211-.5107A0.2315,0.2315,0,0,1,1466.4824,358.501Zm4.1377,5.4277c1.2451-.9541,2.5049-1.8984,3.75-2.8521l-0.0244-.1016-4.6289-.8774Z"/>
    <path d="M1477.2813,367.1309a0.31,0.31,0,0,1,.3779.2349l0.0869,0.37a0.3183,0.3183,0,0,1-.2324.3794l-3.6914.8706,4.81,3.0718a0.3952,0.3952,0,0,1,.1846.2124l0.1475,0.626a0.2526,0.2526,0,0,1-.4111.2583l-4.7969-3.1289-3.2559,5.2314a0.2582,0.2582,0,0,1-.4463-0.1245l-0.1533-.6514a0.3559,0.3559,0,0,1,.0352-0.25l3.2354-5.0908-3.9854.9395a0.3187,0.3187,0,0,1-.3789-0.2349l-0.0879-.37a0.3119,0.3119,0,0,1,.2344-0.3794Z"/>
    <path d="M1470.748,376.5879l9.5107,1.856a0.2356,0.2356,0,0,1,.1914.1836l0.03,0.1279a0.2348,0.2348,0,0,1-.0889.25l-7.6865,5.8833a0.2307,0.2307,0,0,1-.3828-0.1372l-0.1211-.5107a0.2424,0.2424,0,0,1,.09-0.251l1.8838-1.4414-1.0693-4.5352-2.3262-.4355a0.2391,0.2391,0,0,1-.1924-0.1836l-0.12-.51A0.2319,0.2319,0,0,1,1470.748,376.5879Zm4.1377,5.4277c1.2451-.9541,2.5049-1.8984,3.75-2.8521l-0.0244-.1025-4.6289-.8765Z"/>
    <path d="M1481.61,385.2031a0.2485,0.2485,0,0,1,.3.1851l0.7793,3.31a2.8187,2.8187,0,0,1-2.0635,3.4243,2.9277,2.9277,0,0,1-3.0508-1.2759l-2.832,2.5151a0.2476,0.2476,0,0,1-.4209-0.1294l-0.1445-.6123a0.2855,0.2855,0,0,1,.125-0.3276l2.916-2.44-0.5742-2.4385-3.2578.7686a0.2588,0.2588,0,0,1-.3-0.187l-0.1172-.498a0.2482,0.2482,0,0,1,.1855-0.2993Zm-3.5332,4.5132a1.8833,1.8833,0,1,0,3.666-.8643l-0.585-2.4766-3.665.8643Z"/>
    <path d="M1483.7939,394.4639a0.2468,0.2468,0,0,1,.2969.1733l0.6748,2.86a4.5929,4.5929,0,1,1-8.94,2.1084l-0.6748-2.86a0.2474,0.2474,0,0,1,.1885-0.2876Zm-7.1152,4.82a3.6945,3.6945,0,0,0,7.1914-1.6958l-0.4736-2.0059-7.19,1.6958Z"/>
  </g>
  <g>
    <path d="M1015.1729,493.6172a0.3383,0.3383,0,0,1,.3369.3154l0.0215,0.6885a0.3379,0.3379,0,0,1-.3164.3379l-11.3984.3623a0.3386,0.3386,0,0,1-.3379-0.3164l-0.0215-.6885a0.3384,0.3384,0,0,1,.3164-0.3369Z"/>
    <path d="M1009.2266,497.9756l0.3271-.0107a0.3167,0.3167,0,0,1,.3369.3174l0.1152,3.5986a0.3159,0.3159,0,0,1-.3164.3369l-0.3281.0107a0.3129,0.3129,0,0,1-.32-0.3174l-0.1143-3.5986A0.313,0.313,0,0,1,1009.2266,497.9756Z"/>
    <path d="M1005.6084,504.5352l0.43,0.4688a0.3032,0.3032,0,0,1-.0713.4854,3.5517,3.5517,0,0,0-1.1387,2.6895,2.3149,2.3149,0,0,0,2.32,2.4775c1.3252-.042,2.2588-1.0205,2.1895-3.2061l-0.0312-1a0.3329,0.3329,0,0,1,.3848-0.3564l0.4307-.0137a0.3135,0.3135,0,0,1,.3906.3672l0.0313,0.9814c0.0605,1.8945,1.0713,2.7754,2.2422,2.7383a2.193,2.193,0,0,0,2.1641-2.3965,3.0261,3.0261,0,0,0-1.2275-2.2861,0.2817,0.2817,0,0,1-.0488-0.4473l0.3135-.4414a0.327,0.327,0,0,1,.4648-0.0146,4.5421,4.5421,0,0,1,1.6689,3.1523c0.0684,2.1523-1.123,3.707-3.12,3.7705a3.3015,3.3015,0,0,1-2.8652-1.7529l-0.0518.001a3.1821,3.1821,0,0,1-2.7559,2.2246c-2.0146.0645-3.5254-1.3691-3.6045-3.8311a4.4507,4.4507,0,0,1,1.4541-3.6143A0.2994,0.2994,0,0,1,1005.6084,504.5352Z"/>
    <path d="M1005.9941,514.499c0.125,0.1338.2842,0.25,0.4092,0.4,0.1436,0.1514.1816,0.2881-.0029,0.4316a3.2289,3.2289,0,0,0-1.2246,2.6758,2.8663,2.8663,0,0,0,2.998,2.6973,2.4942,2.4942,0,0,0,2.46-2.8711l-0.0859-2.7021a0.5924,0.5924,0,0,1,.6025-0.5713l4.6836-.1494a0.3434,0.3434,0,0,1,.3379.334l0.17,5.3545a0.3424,0.3424,0,0,1-.3154.3555l-0.5176.0166a0.3583,0.3583,0,0,1-.3555-0.334l-0.1436-4.5107-3.2539.1035,0.0654,2.0654c0.085,2.67-1.2812,4.1436-3.5879,4.2168a4.03,4.03,0,0,1-4.1953-3.9854,4.2184,4.2184,0,0,1,1.3555-3.4736C1005.6611,514.32,1005.7813,514.2988,1005.9941,514.499Z"/>
    <path d="M1016.1484,524.291a0.3275,0.3275,0,0,1,.3369.3174l0.2158,6.7832a0.327,0.327,0,0,1-.3164.3379l-0.5.0156a0.3261,0.3261,0,0,1-.3369-0.3164l-0.1846-5.7852-4.2012.1338,0.1572,4.9414a0.34,0.34,0,0,1-.3174.3379l-0.499.0156a0.3269,0.3269,0,0,1-.3369-0.3174l-0.1572-4.9414-4.3906.14,0.1836,5.7852a0.3276,0.3276,0,0,1-.3164.3379l-0.5.0156a0.3261,0.3261,0,0,1-.3369-0.3164l-0.2158-6.7832a0.3285,0.3285,0,0,1,.3164-0.3389Z"/>
  </g>
  <g>
    <path d="M1506.64,636.4707a0.3379,0.3379,0,0,1,.167-0.4307l0.6309-.2783a0.3388,0.3388,0,0,1,.4316.167l4.6055,10.4336a0.3377,0.3377,0,0,1-.168.4307l-0.6309.2783a0.3377,0.3377,0,0,1-.4307-0.167Z"/>
    <path d="M1512.9082,640.3516l-0.1318-.3a0.3149,0.3149,0,0,1,.167-0.4307l3.2939-1.4541a0.3177,0.3177,0,0,1,.4316.167l0.1318,0.3a0.3126,0.3126,0,0,1-.1738.415l-3.2949,1.4541A0.3127,0.3127,0,0,1,1512.9082,640.3516Z"/>
    <path d="M1520.3457,641.249l0.2734-.5732a0.3024,0.3024,0,0,1,.4766-0.1152,3.5538,3.5538,0,0,0,2.92.0469,2.3145,2.3145,0,0,0,1.43-3.0781c-0.5361-1.2129-1.793-1.7139-3.7949-.83l-0.9131.4033a0.3337,0.3337,0,0,1-.4756-0.2227l-0.1738-.3945a0.3138,0.3138,0,0,1,.1934-0.5l0.8984-.3965c1.7334-.7656,2.1729-2.0312,1.6992-3.1035a2.1915,2.1915,0,0,0-3.0312-1.1084,3.03,3.03,0,0,0-1.6621,1.9941,0.2813,0.2813,0,0,1-.3965.2119l-0.5254-.126a0.3269,0.3269,0,0,1-.1875-0.4258,4.5416,4.5416,0,0,1,2.2969-2.7266c1.9707-.87,3.8584-0.3477,4.666,1.48a3.3025,3.3025,0,0,1-.5527,3.3125l0.0215,0.0479a3.1832,3.1832,0,0,1,3.0947,1.7227c0.8135,1.8438.05,3.78-2.2041,4.7754a4.45,4.45,0,0,1-3.8955.0068A0.3,0.3,0,0,1,1520.3457,641.249Z"/>
    <path d="M1527.6914,633.4121c-1.5723-3.5625-1.07-6.3066,1.4355-7.4131,2.5215-1.1133,4.8887.3652,6.4609,3.9277,1.5645,3.5459,1.0693,6.3057-1.4521,7.4189C1531.63,638.4521,1529.2568,636.958,1527.6914,633.4121Zm6.667-2.9434c-1.3018-2.9473-2.9482-4.1592-4.7441-3.3662-1.7812.7861-1.9941,2.8193-.6924,5.7666,1.3066,2.9619,2.9463,4.16,4.7275,3.374C1535.4453,635.45,1535.666,633.4316,1534.3584,630.4688Z"/>
  </g>
  <g>
    <path d="M1093.1211,195.3521a0.3,0.3,0,0,1-.0693-0.5117l0.5146-.5078a0.355,0.355,0,0,1,.3906-0.0459l7.97,4.6719,0.0488-.0483-4.374-8.5337a0.2929,0.2929,0,0,1,.0752-0.34l0.2207-.2178a0.3105,0.3105,0,0,1,.3418-0.0708l8.5078,4.4575,0.0488-.0488-4.5967-7.9985a0.3528,0.3528,0,0,1,.0518-0.39l0.5146-.5078a0.3011,0.3011,0,0,1,.5117.0762l5.81,10.5293a0.3288,0.3288,0,0,1-.0518.39l-0.1963.1934a0.3469,0.3469,0,0,1-.3408.07l-8.666-4.5425-0.0615.0605,4.459,8.6914a0.35,0.35,0,0,1-.0762.3413l-0.1963.1934a0.3289,0.3289,0,0,1-.39.0459Z"/>
    <path d="M1108.26,179.6a6.2019,6.2019,0,1,1-.0381,8.7705A6.1894,6.1894,0,0,1,1108.26,179.6Zm7.8633,7.9736a4.9962,4.9962,0,1,0-7.042-.05A5.0077,5.0077,0,0,0,1116.123,187.5732Z"/>
    <path d="M1118.3516,169.647a6.2019,6.2019,0,1,1-.0371,8.7705A6.19,6.19,0,0,1,1118.3516,169.647Zm7.8633,7.9736a4.9962,4.9962,0,1,0-7.042-.05A5.0077,5.0077,0,0,0,1126.2148,177.6206Z"/>
    <path d="M1124.9316,163.8608a0.3233,0.3233,0,0,1-.0088-0.4507l2.7471-2.71a6.03,6.03,0,1,1,8.4678,8.5859l-2.748,2.71a0.3243,0.3243,0,0,1-.45-0.0151Zm10.2607,4.6885a4.85,4.85,0,0,0-6.8105-6.9062l-1.9258,1.8994,6.8105,6.9063Z"/>
    <path d="M1140.7139,164.1426l-4.4111-11.9321a0.3087,0.3087,0,0,1,.0752-0.34l0.1221-.1211a0.31,0.31,0,0,1,.3418-0.0708l11.8447,4.6021a0.3046,0.3046,0,0,1,.1074.5249l-0.4912.4839a0.3159,0.3159,0,0,1-.3408.0708l-2.9053-1.1294-4.3545,4.2944,1.1016,2.9072a0.3177,0.3177,0,0,1-.0752.34l-0.4912.4839A0.3044,0.3044,0,0,1,1140.7139,164.1426Zm3.2627-8.3452c-1.9189-.7441-3.8389-1.5132-5.7588-2.2573l-0.0986.0967,2.1777,5.79Z"/>
    <path d="M1142.0381,146.9907a0.3271,0.3271,0,0,1,.0029-0.4629l0.4785-.4722a0.3388,0.3388,0,0,1,.4629.0039l7.4268,7.5313,3.5332-3.4839a0.3267,0.3267,0,0,1,.4619.0024l0.3516,0.3564a0.3274,0.3274,0,0,1-.0029.4624l-4.2441,4.1855a0.3279,0.3279,0,0,1-.4629-0.0029Z"/>
    <path d="M1148.0957,141.0171a0.3277,0.3277,0,0,1,.0029-0.4634l0.4785-.4717a0.3383,0.3383,0,0,1,.4629.0034l7.4268,7.5313L1160,144.1328a0.3267,0.3267,0,0,1,.4619.0029l0.3516,0.3564a0.3268,0.3268,0,0,1-.0029.4619l-4.2441,4.1855a0.3274,0.3274,0,0,1-.4629-0.0024Z"/>
    <path d="M1157.0957,132.1406a0.3277,0.3277,0,0,1,.0039-0.4634l3.1768-3.1328a3.7024,3.7024,0,0,1,5.25-.0244,3.8446,3.8446,0,0,1,.6523,4.293l4.7529,1.458a0.3253,0.3253,0,0,1,.1426.561l-0.5889.5806a0.372,0.372,0,0,1-.4512.0825l-4.7285-1.605-2.3428,2.3105,3.0859,3.1289a0.3381,0.3381,0,0,1-.0039.4619l-0.4775.4717a0.3274,0.3274,0,0,1-.4629-0.0024Zm7.4736,0.88a2.4722,2.4722,0,1,0-3.4717-3.5205l-2.38,2.3467,3.4717,3.5205Z"/>
    <path d="M1168.58,120.1133a6.2019,6.2019,0,1,1-.0381,8.7705A6.189,6.189,0,0,1,1168.58,120.1133Zm7.8633,7.9736a4.9965,4.9965,0,1,0-7.042-.05A5.0077,5.0077,0,0,0,1176.4434,128.0869Z"/>
    <path d="M1178.6963,110.1362a6.0568,6.0568,0,0,1,4.0938-1.7856,0.3321,0.3321,0,0,1,.3506.3306c-0.002.2192-.0146,0.4756-0.0039,0.6826,0.01,0.231-.0762.2915-0.3311,0.3018a5.2293,5.2293,0,0,0-3.2744,1.3423,4.9643,4.9643,0,0,0,6.9678,7.0645,6.486,6.486,0,0,0,1.6992-2.6919l-1.6943-1.7178-1.41,1.3911a0.3122,0.3122,0,0,1-.45.0088l-0.4482-.4541a0.316,0.316,0,0,1,.0039-0.4619l2.1221-2.0928a0.3238,0.3238,0,0,1,.45.0146l2.7705,2.81a0.42,0.42,0,0,1,.0947.293,8.5068,8.5068,0,0,1-2.2314,3.7974A6.2019,6.2019,0,1,1,1178.6963,110.1362Z"/>
    <path d="M1184.16,105.4507a0.3271,0.3271,0,0,1,.0029-0.4629l4.833-4.7661a0.3265,0.3265,0,0,1,.4629.0034l0.3506,0.3555a0.3266,0.3266,0,0,1-.0039.4624l-4.1211,4.0645,2.9521,2.9932,3.5205-3.4717a0.3393,0.3393,0,0,1,.4629.0034l0.3506,0.3555a0.3275,0.3275,0,0,1-.0039.4634l-3.5205,3.4717,3.085,3.1279,4.1221-4.0645a0.3263,0.3263,0,0,1,.4619.0024l0.3516,0.3564a0.3274,0.3274,0,0,1-.0029.4624l-4.833,4.7661a0.3278,0.3278,0,0,1-.4629-0.0029Z"/>
    <path d="M1191.2236,98.4854a0.3277,0.3277,0,0,1,.0029-0.4634l3.1768-3.1328a3.7036,3.7036,0,0,1,5.251-.0249,3.8468,3.8468,0,0,1,.6514,4.2935l4.7529,1.458a0.3253,0.3253,0,0,1,.1426.561l-0.5889.5806a0.3724,0.3724,0,0,1-.4512.0825l-4.7285-1.6055-2.3428,2.3105,3.0859,3.1289a0.34,0.34,0,0,1-.0029.4624l-0.4785.4717a0.3274,0.3274,0,0,1-.4629-0.0024Zm7.4727,0.88a2.4722,2.4722,0,1,0-3.4717-3.5205l-2.38,2.3467,3.4717,3.5205Z"/>
    <path d="M1205.6826,98.1616l-0.0449-.4146c-0.0352-.2812.0029-0.4385,0.32-0.46a5.0226,5.0226,0,0,0,2.9912-1.186,2.0841,2.0841,0,0,0,.2646-3.02c-0.834-.8457-2.0537-0.61-4.0576.18-1.918.7534-3.2354,1.0371-4.6143-.3613-0.8223-.834-1.49-2.8369.46-4.76a5.63,5.63,0,0,1,2.7148-1.4424,0.3948,0.3948,0,0,1,.4844.3442l0.083,0.3291c0.07,0.2686-.0645.4019-0.3691,0.4858a4.0439,4.0439,0,0,0-2.1152,1.1177c-1.3,1.2822-.87,2.5034-0.3613,3.019,0.8584,0.87,1.8584.6338,3.3125,0.0464,2.3213-.958,4.0049-1.3848,5.4092.0381a3.4766,3.4766,0,0,1-.4248,4.87,5.62,5.62,0,0,1-3.5664,1.56A0.3646,0.3646,0,0,1,1205.6826,98.1616Z"/>
  </g>
  <g>
    <path d="M1224.4336,390.4092a0.2511,0.2511,0,0,1,.2295.1914l0.0449,0.2061a0.2509,0.2509,0,0,1-.0937.2485l-6.5137,4.0737c0.0049,0.0254.0078,0.0381,0.0137,0.0635l7.6084,0.9673a0.2454,0.2454,0,0,1,.1885.186l0.0449,0.2051a0.2516,0.2516,0,0,1-.13.2705l-8.2578,3.5254a0.2283,0.2283,0,0,1-.3574-0.1641L1217.1,399.67a0.27,0.27,0,0,1,.1289-0.27l6.3564-2.5762c-0.0029-.0127-0.0088-0.0381-0.0107-0.0518l-7.2842-.8887a0.2663,0.2663,0,0,1-.1885-0.1865l-0.05-.23a0.27,0.27,0,0,1,.0938-0.25l6.2529-3.8555-0.0117-.0508-6.8467.3184a0.2543,0.2543,0,0,1-.2295-0.1914l-0.1113-.5127a0.2282,0.2282,0,0,1,.2578-0.2969Z"/>
    <path d="M1217.9678,402.0605l9.4766,2.0234a0.2356,0.2356,0,0,1,.1885.1885l0.0283,0.1279a0.2361,0.2361,0,0,1-.0937.248l-7.7891,5.7471a0.2314,0.2314,0,0,1-.3809-0.1455l-0.1113-.5127a0.2411,0.2411,0,0,1,.0938-0.248l1.9092-1.4082-0.9883-4.5537-2.3193-.4756a0.2426,0.2426,0,0,1-.1885-0.1875l-0.1113-.5137A0.2316,0.2316,0,0,1,1217.9678,402.0605Zm4.042,5.501c1.2607-.9326,2.5381-1.8545,3.7988-2.7852l-0.0225-.1025-4.6123-.959Z"/>
    <path d="M1228.6758,410.8672a0.2488,0.2488,0,0,1,.2969.19l0.7217,3.3213a2.8214,2.8214,0,0,1-2.124,3.39,2.93,2.93,0,0,1-3.0283-1.33l-2.876,2.4639a0.2478,0.2478,0,0,1-.4189-0.1367l-0.1338-.6152a0.2845,0.2845,0,0,1,.1309-0.3242l2.96-2.3887-0.5322-2.4492-3.27.7109a0.2581,0.2581,0,0,1-.2969-0.1914l-0.1094-.5a0.25,0.25,0,0,1,.1914-0.2969Zm-3.6113,4.45a1.8827,1.8827,0,1,0,3.68-.7988l-0.54-2.4873-3.6807.7988Z"/>
    <path d="M1230.6328,420.1787a0.31,0.31,0,0,1,.373.2412l0.0811,0.3711a0.3194,0.3194,0,0,1-.24.376l-3.7061.8047,4.7539,3.1563a0.3913,0.3913,0,0,1,.1816.2158l0.1367,0.6289a0.2529,0.2529,0,0,1-.416.251l-4.74-3.2129-3.3477,5.1719a0.2587,0.2587,0,0,1-.4453-0.1328l-0.1416-.6533a0.362,0.362,0,0,1,.0391-0.25l3.3252-5.0322-4.001.8691a0.32,0.32,0,0,1-.374-0.2422l-0.0811-.3711a0.3106,0.3106,0,0,1,.2412-0.375Z"/>
    <path d="M1232.5791,428.835a0.2482,0.2482,0,0,1,.2959.19l1.0977,5.0527a0.2478,0.2478,0,0,1-.19.2969l-0.3721.08a0.2468,0.2468,0,0,1-.2959-0.1895l-0.9355-4.3086-3.13.68,0.8,3.68a0.2588,0.2588,0,0,1-.19.2969l-0.3721.08a0.2483,0.2483,0,0,1-.2969-0.19l-0.7988-3.68-3.2705.71,0.9355,4.3086a0.2468,0.2468,0,0,1-.19.2959l-0.3711.0811a0.2488,0.2488,0,0,1-.2969-0.19l-1.0977-5.0527a0.25,0.25,0,0,1,.19-0.2969Z"/>
    <path d="M1234.12,438.8945l-0.4854-2.23a0.2518,0.2518,0,0,1,.19-0.2988l0.3721-.08a0.25,0.25,0,0,1,.2969.1914l1.1807,5.4375a0.2488,0.2488,0,0,1-.19.2969l-0.3721.08a0.2482,0.2482,0,0,1-.2959-0.19l-0.4844-2.2314-7.874,1.71a0.2585,0.2585,0,0,1-.2969-0.19l-0.1055-.4873a0.2585,0.2585,0,0,1,.19-0.2969Z"/>
  </g>
  <path d="M1332.7862,508.7834a22.8774,22.8774,0,0,1-2.91,11.0447l-18.4218,33.4042a1.58,1.58,0,0,1-1.2553.6938,1.442,1.442,0,0,1-1.2553-.6938l-18.4218-33.4042a21.8379,21.8379,0,0,1-2.91-11.0447A22.5875,22.5875,0,1,1,1332.7862,508.7834Zm-14.1211,0a8.4664,8.4664,0,1,0-8.4664,8.4664A8.42,8.42,0,0,0,1318.6652,508.7834Z" fill="#0099d1"/>
</svg>
